{
  "accessors": [
    {
      "bufferView": 2,
      "componentType": 5126,
      "count": 1596,
      "max": [
        0.18803922832012177,
        0.1256731003522873,
        0.1421203911304474
      ],
      "min": [
        -0.21278123557567596,
        -0.14648886024951935,
        -0.000781399430707097
      ],
      "type": "VEC3"
    },
    {
      "bufferView": 2,
      "byteOffset": 19152,
      "componentType": 5126,
      "count": 1596,
      "max": [
        0.9974652528762817,
        0.9989405274391174,
        0.9999341368675232
      ],
      "min": [
        -0.9974652528762817,
        -0.9989405274391174,
        -1.0
      ],
      "type": "VEC3"
    },
    {
      "bufferView": 3,
      "componentType": 5126,
      "count": 1596,
      "max": [
        0.999652087688446,
        1.0,
        0.9999402165412903,
        1.0
      ],
      "min": [
        -0.9995182752609253,
        -0.9999997615814209,
        -0.9998778104782104,
        1.0
      ],
      "type": "VEC4"
    },
    {
      "bufferView": 1,
      "componentType": 5126,
      "count": 1596,
      "max": [
        0.9261164665222168,
        0.9830520153045654
      ],
      "min": [
        0.01943790912628174,
        0.008854895830154419
      ],
      "type": "VEC2"
    },
    {
      "bufferView": 1,
      "byteOffset": 12768,
      "componentType": 5126,
      "count": 1596,
      "max": [
        0.9261164665222168,
        0.9830520153045654
      ],
      "min": [
        0.01943790912628174,
        0.008854895830154419
      ],
      "type": "VEC2"
    },
    {
      "bufferView": 0,
      "componentType": 5125,
      "count": 6912,
      "type": "SCALAR"
    },
    {
      "bufferView": 2,
      "byteOffset": 38304,
      "componentType": 5126,
      "count": 11777,
      "max": [
        0.20800569653511047,
        0.20485907793045044,
        0.5766506791114807
      ],
      "min": [
        -0.2326035350561142,
        -0.20888948440551758,
        0.10472237318754196
      ],
      "type": "VEC3"
    },
    {
      "bufferView": 2,
      "byteOffset": 179628,
      "componentType": 5126,
      "count": 11777,
      "max": [
        0.9998400211334229,
        0.9997729659080505,
        0.9999346733093262
      ],
      "min": [
        -0.9999696612358093,
        -0.9999909996986389,
        -0.9996094703674316
      ],
      "type": "VEC3"
    },
    {
      "bufferView": 3,
      "byteOffset": 25536,
      "componentType": 5126,
      "count": 11777,
      "max": [
        0.9997604489326477,
        0.9999626278877258,
        0.9997701048851013,
        1.0
      ],
      "min": [
        -0.9998500943183899,
        -0.9998735785484314,
        -0.9974654316902161,
        -1.0
      ],
      "type": "VEC4"
    },
    {
      "bufferView": 1,
      "byteOffset": 25536,
      "componentType": 5126,
      "count": 11777,
      "max": [
        0.9988487958908081,
        0.9980196952819824
      ],
      "min": [
        0.001151188276708126,
        0.0011511854827404022
      ],
      "type": "VEC2"
    },
    {
      "bufferView": 1,
      "byteOffset": 119752,
      "componentType": 5126,
      "count": 11777,
      "max": [
        0.9988487958908081,
        0.9980196952819824
      ],
      "min": [
        0.001151188276708126,
        0.0011511854827404022
      ],
      "type": "VEC2"
    },
    {
      "bufferView": 0,
      "byteOffset": 27648,
      "componentType": 5125,
      "count": 41430,
      "type": "SCALAR"
    },
    {
      "bufferView": 2,
      "byteOffset": 320952,
      "componentType": 5126,
      "count": 14706,
      "max": [
        0.23375028371810913,
        0.22058117389678955,
        0.5774924159049988
      ],
      "min": [
        -0.2594043016433716,
        -0.21267174184322357,
        0.26148146390914917
      ],
      "type": "VEC3"
    },
    {
      "bufferView": 2,
      "byteOffset": 497424,
      "componentType": 5126,
      "count": 14706,
      "max": [
        0.9997069239616394,
        0.9998245239257813,
        0.9999739527702332
      ],
      "min": [
        -0.9991955161094666,
        -0.9999043345451355,
        -0.8029597401618958
      ],
      "type": "VEC3"
    },
    {
      "bufferView": 3,
      "byteOffset": 213968,
      "componentType": 5126,
      "count": 14706,
      "max": [
        0.9999513626098633,
        0.9999950528144836,
        0.9991178512573242,
        1.0
      ],
      "min": [
        -0.9999813437461853,
        -0.9999903440475464,
        -0.997473418712616,
        -1.0
      ],
      "type": "VEC4"
    },
    {
      "bufferView": 1,
      "byteOffset": 213968,
      "componentType": 5126,
      "count": 14706,
      "max": [
        0.7965115308761597,
        0.9484707713127136
      ],
      "min": [
        0.1755496710538864,
        0.0353107713162899
      ],
      "type": "VEC2"
    },
    {
      "bufferView": 1,
      "byteOffset": 331616,
      "componentType": 5126,
      "count": 14706,
      "max": [
        0.7965115308761597,
        0.9484707713127136
      ],
      "min": [
        0.1755496710538864,
        0.0353107713162899
      ],
      "type": "VEC2"
    },
    {
      "bufferView": 1,
      "byteOffset": 449264,
      "componentType": 5126,
      "count": 14706,
      "max": [
        0.7965115308761597,
        0.9484707713127136
      ],
      "min": [
        0.1755496710538864,
        0.0353107713162899
      ],
      "type": "VEC2"
    },
    {
      "bufferView": 0,
      "byteOffset": 193368,
      "componentType": 5125,
      "count": 63474,
      "type": "SCALAR"
    }
  ],
  "asset": {
    "extras": {
      "author": "Scar56 (https://sketchfab.com/Scar56)",
      "license": "CC-BY-4.0 (http://creativecommons.org/licenses/by/4.0/)",
      "source": "https://sketchfab.com/3d-models/ficus-bonsai-f420ea9edb914e1b9b7adebbacecc7d8",
      "title": "Ficus Bonsai"
    },
    "generator": "Sketchfab-12.38.1",
    "version": "2.0"
  },
  "bufferViews": [
    {
      "buffer": 0,
      "byteLength": 447264,
      "name": "floatBufferViews",
      "target": 34963
    },
    {
      "buffer": 0,
      "byteLength": 566912,
      "byteOffset": 447264,
      "byteStride": 8,
      "name": "floatBufferViews",
      "target": 34962
    },
    {
      "buffer": 0,
      "byteLength": 673896,
      "byteOffset": 1014176,
      "byteStride": 12,
      "name": "floatBufferViews",
      "target": 34962
    },
    {
      "buffer": 0,
      "byteLength": 449264,
      "byteOffset": 1688072,
      "byteStride": 16,
      "name": "floatBufferViews",
      "target": 34962
    }
  ],
  "buffers": [
    {
      "byteLength": 2137336,
      "uri": "scene.bin"
    }
  ],
  "images": [
    {
      "uri": "textures/material_baseColor.png"
    },
    {
      "uri": "textures/material_metallicRoughness.png"
    },
    {
      "uri": "textures/material_normal.png"
    },
    {
      "uri": "textures/Bark_baseColor.png"
    },
    {
      "uri": "textures/Bark_metallicRoughness.png"
    },
    {
      "uri": "textures/Bark_normal.png"
    },
    {
      "uri": "textures/LeafSet_baseColor.png"
    },
    {
      "uri": "textures/LeafSet_metallicRoughness.png"
    },
    {
      "uri": "textures/LeafSet_normal.png"
    }
  ],
  "materials": [
    {
      "doubleSided": true,
      "name": "material",
      "normalTexture": {
        "index": 2
      },
      "pbrMetallicRoughness": {
        "baseColorTexture": {
          "index": 0
        },
        "metallicRoughnessTexture": {
          "index": 1
        }
      }
    },
    {
      "doubleSided": true,
      "name": "Bark",
      "normalTexture": {
        "index": 5
      },
      "pbrMetallicRoughness": {
        "baseColorTexture": {
          "index": 3
        },
        "metallicRoughnessTexture": {
          "index": 4
        }
      }
    },
    {
      "alphaCutoff": 0.9623774085085943,
      "alphaMode": "MASK",
      "doubleSided": true,
      "name": "LeafSet",
      "normalTexture": {
        "index": 8
      },
      "pbrMetallicRoughness": {
        "baseColorTexture": {
          "index": 6
        },
        "metallicRoughnessTexture": {
          "index": 7
        }
      }
    }
  ],
  "meshes": [
    {
      "name": "Cube_Pot_0",
      "primitives": [
        {
          "attributes": {
            "NORMAL": 1,
            "POSITION": 0,
            "TANGENT": 2,
            "TEXCOORD_0": 3,
            "TEXCOORD_1": 4
          },
          "indices": 5,
          "material": 0,
          "mode": 4
        }
      ]
    },
    {
      "name": "Cube_Bark_0",
      "primitives": [
        {
          "attributes": {
            "NORMAL": 7,
            "POSITION": 6,
            "TANGENT": 8,
            "TEXCOORD_0": 9,
            "TEXCOORD_1": 10
          },
          "indices": 11,
          "material": 1,
          "mode": 4
        }
      ]
    },
    {
      "name": "Cube_LeafSet_0",
      "primitives": [
        {
          "attributes": {
            "NORMAL": 13,
            "POSITION": 12,
            "TANGENT": 14,
            "TEXCOORD_0": 15,
            "TEXCOORD_1": 16,
            "TEXCOORD_2": 17
          },
          "indices": 18,
          "material": 2,
          "mode": 4
        }
      ]
    }
  ],
  "nodes": [
    {
      "children": [
        1
      ],
      "matrix": [
        1.1099998950958252,
        0.0,
        0.0,
        0.0,
        0.0,
        -5.609068555509796e-16,
        1.1099998950958252,
        0.0,
        0.0,
        -1.1099998950958252,
        -5.609068555509796e-16,
        0.0,
        0.0,
        -0.5767104029655457,
        0.007907837629318109,
        1.0
      ],
      "name": "Sketchfab_model"
    },
    {
      "children": [
        2
      ],
      "matrix": [
        0.009999999776482582,
        0.0,
        0.0,
        0.0,
        0.0,
        -0.009999999776482582,
        0.0,
        0.0,
        0.0,
        0.0,
        -0.009999999776482582,
        0.0,
        0.0,
        0.0,
        0.0,
        1.0
      ],
      "name": "fb4f53bb080248ea81d132348afc8800.fbx"
    },
    {
      "children": [
        3
      ],
      "name": "RootNode"
    },
    {
      "children": [
        4,
        5,
        6
      ],
      "matrix": [
        100.0,
        0.0,
        0.0,
        0.0,
        0.0,
        100.0,
        0.0,
        0.0,
        0.0,
        0.0,
        100.0,
        0.0,
        0.0,
        0.0,
        0.0,
        1.0
      ],
      "name": "Cube"
    },
    {
      "mesh": 0,
      "name": "Cube_Pot_0"
    },
    {
      "mesh": 1,
      "name": "Cube_Bark_0"
    },
    {
      "mesh": 2,
      "name": "Cube_LeafSet_0"
    }
  ],
  "samplers": [
    {
      "magFilter": 9729,
      "minFilter": 9987,
      "wrapS": 10497,
      "wrapT": 10497
    }
  ],
  "scene": 0,
  "scenes": [
    {
      "name": "Sketchfab_Scene",
      "nodes": [
        0
      ]
    }
  ],
  "textures": [
    {
      "sampler": 0,
      "source": 0
    },
    {
      "sampler": 0,
      "source": 1
    },
    {
      "sampler": 0,
      "source": 2
    },
    {
      "sampler": 0,
      "source": 3
    },
    {
      "sampler": 0,
      "source": 4
    },
    {
      "sampler": 0,
      "source": 5
    },
    {
      "sampler": 0,
      "source": 6
    },
    {
      "sampler": 0,
      "source": 7
    },
    {
      "sampler": 0,
      "source": 8
    }
  ]
}
